<mxfile host="65bd71144e">
    <diagram id="MLjbvFfca3XuFX_FxreK" name="Page-1">
        <mxGraphModel dx="429" dy="489" grid="0" gridSize="10" guides="1" tooltips="1" connect="1" arrows="1" fold="1" page="1" pageScale="1" pageWidth="850" pageHeight="1100" math="0" shadow="0">
            <root>
                <mxCell id="0"/>
                <mxCell id="1" parent="0"/>
                <mxCell id="2" value="A" style="swimlane;fontStyle=1;startSize=23;fontSize=14;" vertex="1" parent="1">
                    <mxGeometry x="90" y="120" width="195" height="80" as="geometry"/>
                </mxCell>
                <mxCell id="3" value="B" style="swimlane;fontStyle=1;fontSize=14;" vertex="1" parent="1">
                    <mxGeometry x="470" y="120" width="180" height="80" as="geometry"/>
                </mxCell>
                <mxCell id="4" value="&lt;b&gt;B &quot;is a&quot; A&lt;/b&gt;" style="text;html=1;strokeColor=none;fillColor=none;align=center;verticalAlign=middle;whiteSpace=wrap;rounded=0;fontSize=14;" vertex="1" parent="1">
                    <mxGeometry x="320" y="145" width="140" height="30" as="geometry"/>
                </mxCell>
                <mxCell id="5" value="&lt;b&gt;&lt;font style=&quot;font-size: 24px;&quot;&gt;INHERITANCE&lt;/font&gt;&lt;/b&gt;" style="text;html=1;strokeColor=none;fillColor=none;align=center;verticalAlign=middle;whiteSpace=wrap;rounded=0;fontSize=14;rotation=0;" vertex="1" parent="1">
                    <mxGeometry x="260" y="20" width="280" height="90" as="geometry"/>
                </mxCell>
                <mxCell id="6" value="" style="endArrow=block;html=1;entryX=1;entryY=0.75;entryDx=0;entryDy=0;exitX=0;exitY=0.75;exitDx=0;exitDy=0;strokeWidth=3;endFill=0;endSize=15;startSize=0;rounded=0;fillColor=#d80073;strokeColor=#A50040;" edge="1" parent="1" source="3" target="2">
                    <mxGeometry width="50" height="50" relative="1" as="geometry">
                        <mxPoint x="400" y="290" as="sourcePoint"/>
                        <mxPoint x="450" y="240" as="targetPoint"/>
                    </mxGeometry>
                </mxCell>
                <mxCell id="7" value="&lt;b&gt;&lt;font style=&quot;font-size: 14px;&quot;&gt;B extends A&lt;/font&gt;&lt;/b&gt;" style="text;html=1;align=center;verticalAlign=middle;resizable=0;points=[];autosize=1;strokeColor=none;fillColor=none;" vertex="1" parent="1">
                    <mxGeometry x="340" y="190" width="100" height="30" as="geometry"/>
                </mxCell>
                <mxCell id="14" value="&lt;&lt;IDemoInterface&gt;&gt;" style="swimlane;fontStyle=3;startSize=23;fontSize=14;" vertex="1" parent="1">
                    <mxGeometry x="90" y="350" width="195" height="80" as="geometry"/>
                </mxCell>
                <mxCell id="19" value="&lt;b&gt;&lt;font style=&quot;font-size: 14px;&quot;&gt;A&lt;/font&gt;&lt;/b&gt;" style="text;html=1;align=center;verticalAlign=middle;resizable=0;points=[];autosize=1;strokeColor=none;fillColor=none;" vertex="1" parent="14">
                    <mxGeometry x="82.5" y="35" width="30" height="30" as="geometry"/>
                </mxCell>
                <mxCell id="15" value="Implementing Class" style="swimlane;fontStyle=1;fontSize=14;" vertex="1" parent="1">
                    <mxGeometry x="470" y="350" width="180" height="80" as="geometry"/>
                </mxCell>
                <mxCell id="20" value="&lt;b&gt;&lt;font style=&quot;font-size: 14px;&quot;&gt;B&lt;/font&gt;&lt;/b&gt;" style="text;html=1;align=center;verticalAlign=middle;resizable=0;points=[];autosize=1;strokeColor=none;fillColor=none;" vertex="1" parent="15">
                    <mxGeometry x="75" y="35" width="30" height="30" as="geometry"/>
                </mxCell>
                <mxCell id="16" value="&lt;b&gt;B &quot;implements&quot; A&lt;/b&gt;" style="text;html=1;strokeColor=none;fillColor=none;align=center;verticalAlign=middle;whiteSpace=wrap;rounded=0;fontSize=14;" vertex="1" parent="1">
                    <mxGeometry x="320" y="375" width="140" height="30" as="geometry"/>
                </mxCell>
                <mxCell id="17" value="" style="endArrow=block;html=1;entryX=1;entryY=0.75;entryDx=0;entryDy=0;exitX=0;exitY=0.75;exitDx=0;exitDy=0;strokeWidth=3;endFill=0;endSize=15;startSize=0;rounded=0;fillColor=#fa6800;strokeColor=#C73500;dashed=1;" edge="1" parent="1" source="15" target="14">
                    <mxGeometry width="50" height="50" relative="1" as="geometry">
                        <mxPoint x="400" y="520" as="sourcePoint"/>
                        <mxPoint x="450" y="470" as="targetPoint"/>
                    </mxGeometry>
                </mxCell>
                <mxCell id="21" value="&lt;b&gt;Abstract/Concrete Class&lt;/b&gt;" style="text;html=1;align=center;verticalAlign=middle;resizable=0;points=[];autosize=1;strokeColor=none;fillColor=none;fontSize=14;" vertex="1" parent="1">
                    <mxGeometry x="92.5" y="210" width="190" height="30" as="geometry"/>
                </mxCell>
                <mxCell id="22" value="&lt;b&gt;Interface&lt;/b&gt;" style="text;html=1;align=center;verticalAlign=middle;resizable=0;points=[];autosize=1;strokeColor=none;fillColor=none;fontSize=14;" vertex="1" parent="1">
                    <mxGeometry x="147.5" y="450" width="80" height="30" as="geometry"/>
                </mxCell>
            </root>
        </mxGraphModel>
    </diagram>
</mxfile>